<svg
  xmlns="http://www.w3.org/2000/svg"
  viewBox="0 0 24 24"
  className="w-7 h-7"
>
  <!-- Background -->
  <rect width="24" height="24" fill="" />
  <!-- LinkedIn logo -->
  <path
    d="M5.338 8.082a2.254 2.254 0 01-2.254-2.254c0-1.242 1.012-2.253 2.254-2.253s2.253 1.01 2.253 2.253c0 1.242-1.011 2.254-2.253 2.254zM3.39 20.452h3.893V9.452H3.39v11zm14.151-10.999c-2.12 0-3.48 1.56-3.82 2.7v-1.6h-3.89v11h3.89v-5.6c0-1.36.22-2.6 1.58-2.6s1.58 1.06 1.58 2.6v5.6h3.89v-6.6c0-3.6-2.38-5.1-4.23-5.1z"
    fill="#FFFFFF"
  />
</svg>