<svg width="426" height="110" viewBox="0 0 426 110" fill="none" xmlns="http://www.w3.org/2000/svg">
<rect width="110" height="110" rx="25" fill="white"/>
<path d="M76.4941 59.5C76.4941 71.3741 66.8683 81 54.9941 81C43.12 81 33.4941 71.3741 33.4941 59.5C33.4941 47.6259 43.12 38 54.9941 38V38C55.989 38 56.9497 38.363 57.2651 39.3065C58.3294 42.4903 59.23 50.2204 72.4579 48.3059C72.9441 48.2355 73.4469 48.4489 73.69 48.8758C75.4747 52.0096 76.4941 55.6357 76.4941 59.5Z" fill="#FF5F1F"/>
<path d="M20 58.5001C29.5 18.0007 80 18.5 89.5 58.5" stroke="#FF5F1F" stroke-width="4" stroke-linecap="round"/>
<path d="M138.772 75V32.58H155.512C157.672 32.58 159.712 32.8 161.632 33.24C163.552 33.64 165.252 34.36 166.732 35.4C168.212 36.4 169.372 37.78 170.212 39.54C171.052 41.3 171.472 43.48 171.472 46.08C171.472 48.24 171.092 50.14 170.332 51.78C169.572 53.42 168.512 54.8 167.152 55.92C165.832 57.04 164.252 57.9 162.412 58.5L171.712 75H163.312L154.972 59.7H146.272V75H138.772ZM146.272 53.04H154.492C155.852 53.04 157.092 52.94 158.212 52.74C159.372 52.5 160.372 52.12 161.212 51.6C162.092 51.08 162.752 50.38 163.192 49.5C163.672 48.58 163.932 47.42 163.972 46.02C163.972 44.34 163.612 43.02 162.892 42.06C162.212 41.1 161.212 40.42 159.892 40.02C158.612 39.62 157.072 39.42 155.272 39.42H146.272V53.04ZM189.469 75.42C186.189 75.42 183.389 74.74 181.069 73.38C178.789 72.02 177.049 70.14 175.849 67.74C174.689 65.3 174.109 62.48 174.109 59.28C174.109 56.08 174.709 53.26 175.909 50.82C177.149 48.34 178.909 46.4 181.189 45C183.509 43.6 186.289 42.9 189.529 42.9C191.929 42.9 194.029 43.34 195.829 44.22C197.629 45.06 199.129 46.22 200.329 47.7C201.569 49.18 202.489 50.86 203.089 52.74C203.689 54.62 203.969 56.6 203.929 58.68C203.889 59.16 203.849 59.64 203.809 60.12C203.769 60.56 203.709 61.04 203.629 61.56H181.429C181.549 62.96 181.909 64.24 182.509 65.4C183.149 66.56 184.029 67.48 185.149 68.16C186.309 68.84 187.749 69.18 189.469 69.18C190.469 69.18 191.429 69.06 192.349 68.82C193.269 68.54 194.069 68.14 194.749 67.62C195.469 67.1 195.949 66.44 196.189 65.64H203.509C202.989 67.92 202.029 69.78 200.629 71.22C199.229 72.66 197.549 73.72 195.589 74.4C193.669 75.08 191.629 75.42 189.469 75.42ZM181.549 56.1H196.789C196.789 54.78 196.489 53.58 195.889 52.5C195.289 51.42 194.429 50.58 193.309 49.98C192.229 49.34 190.909 49.02 189.349 49.02C187.669 49.02 186.269 49.36 185.149 50.04C184.029 50.72 183.169 51.6 182.569 52.68C181.969 53.76 181.629 54.9 181.549 56.1ZM207.362 86.64V43.38H214.202L214.562 47.64C215.802 46 217.282 44.8 219.002 44.04C220.722 43.28 222.622 42.9 224.702 42.9C227.822 42.9 230.402 43.62 232.442 45.06C234.482 46.5 236.002 48.44 237.002 50.88C238.002 53.32 238.502 56.08 238.502 59.16C238.502 62.24 237.982 65.02 236.942 67.5C235.902 69.94 234.322 71.88 232.202 73.32C230.122 74.72 227.502 75.42 224.342 75.42C222.862 75.42 221.502 75.26 220.262 74.94C219.062 74.62 217.982 74.16 217.022 73.56C216.102 72.96 215.322 72.28 214.682 71.52V86.64H207.362ZM223.202 68.82C225.242 68.82 226.842 68.38 228.002 67.5C229.162 66.58 230.002 65.4 230.522 63.96C231.042 62.48 231.302 60.92 231.302 59.28C231.302 57.56 231.022 55.96 230.462 54.48C229.942 53 229.082 51.8 227.882 50.88C226.682 49.96 225.082 49.5 223.082 49.5C221.242 49.5 219.682 49.96 218.402 50.88C217.162 51.76 216.222 52.94 215.582 54.42C214.942 55.9 214.622 57.5 214.622 59.22C214.622 60.98 214.922 62.6 215.522 64.08C216.122 65.52 217.062 66.68 218.342 67.56C219.622 68.4 221.242 68.82 223.202 68.82ZM241.994 75V32.58H249.314V75H241.994ZM254.008 75V43.38H261.328V75H254.008ZM257.668 39.72C256.268 39.72 255.148 39.3 254.308 38.46C253.468 37.62 253.048 36.52 253.048 35.16C253.048 33.84 253.488 32.76 254.368 31.92C255.248 31.04 256.348 30.6 257.668 30.6C258.948 30.6 260.048 31.02 260.968 31.86C261.888 32.7 262.348 33.8 262.348 35.16C262.348 36.52 261.908 37.62 261.028 38.46C260.148 39.3 259.028 39.72 257.668 39.72ZM279.942 75.42C276.662 75.42 273.902 74.76 271.662 73.44C269.422 72.08 267.722 70.18 266.562 67.74C265.402 65.3 264.822 62.48 264.822 59.28C264.822 56.08 265.422 53.26 266.622 50.82C267.822 48.34 269.582 46.4 271.902 45C274.222 43.6 277.042 42.9 280.362 42.9C282.802 42.9 284.962 43.32 286.842 44.16C288.762 45 290.302 46.24 291.462 47.88C292.662 49.48 293.422 51.48 293.742 53.88H286.542C286.062 52.36 285.262 51.26 284.142 50.58C283.062 49.86 281.762 49.5 280.242 49.5C278.202 49.5 276.582 50 275.382 51C274.222 51.96 273.382 53.18 272.862 54.66C272.342 56.14 272.082 57.68 272.082 59.28C272.082 60.96 272.362 62.54 272.922 64.02C273.482 65.46 274.342 66.62 275.502 67.5C276.702 68.38 278.242 68.82 280.122 68.82C281.642 68.82 283.002 68.48 284.202 67.8C285.442 67.12 286.242 66.02 286.602 64.5H294.042C293.762 66.94 292.942 68.98 291.582 70.62C290.262 72.22 288.582 73.42 286.542 74.22C284.502 75.02 282.302 75.42 279.942 75.42ZM293.837 75L310.097 32.58H319.037L335.237 75H327.137L324.317 67.14H304.757L301.877 75H293.837ZM307.157 60.36H321.857L314.537 40.14L307.157 60.36ZM337.832 75V32.58H345.332V75H337.832ZM352.424 75V32.58H368.084C372.524 32.58 376.284 33.44 379.364 35.16C382.444 36.84 384.784 39.28 386.384 42.48C388.024 45.64 388.844 49.44 388.844 53.88C388.844 58.24 388.044 62 386.444 65.16C384.884 68.32 382.564 70.76 379.484 72.48C376.404 74.16 372.624 75 368.144 75H352.424ZM359.924 68.16H367.964C371.124 68.16 373.664 67.56 375.584 66.36C377.544 65.12 378.964 63.44 379.844 61.32C380.764 59.16 381.224 56.66 381.224 53.82C381.224 51.06 380.784 48.6 379.904 46.44C379.024 44.28 377.604 42.58 375.644 41.34C373.724 40.06 371.184 39.42 368.024 39.42H359.924V68.16ZM393.618 75V32.58H423.558V39.42H401.118V50.58H420.618V57.3H401.118V68.16H423.558V75H393.618Z" fill="white"/>
</svg>
