<svg
  xmlns="http://www.w3.org/2000/svg"
  viewBox="0 0 24 24"
  fill="currentColor"
  className="w-6 h-6"
>
  <path d="M22.225 0H1.771C.791 0 0 .774 0 1.731v20.538C0 23.226.792 24 1.771 24h20.451C23.205 24 24 23.226 24 22.27V1.73C24 .774 23.204 0 22.225 0zm-6.684 20.452h-3.89v-5.788c0-1.382-.028-3.161-1.927-3.161-1.928 0-2.223 1.506-2.223 3.057v5.892h-3.89V9.453h3.737v1.5h.052c.521-.985 1.795-2.027 3.692-2.027 3.948 0 4.676 2.6 4.676 5.984v6.542h-.001zM5.338 8.082a2.254 2.254 0 01-2.254-2.254c0-1.242 1.012-2.253 2.254-2.253s2.253 1.01 2.253 2.253c0 1.242-1.011 2.254-2.253 2.254zM3.39 20.452h3.893V9.452H3.39v11z" />
</svg>